<svg xmlns="http://www.w3.org/2000/svg" viewBox="0 0 48 48">
  <path fill="#EA4335" d="M24 9.5c3.54 0 6.71 1.22 9.06 3.24l6.3-6.3C34.6 4.17 29.6 2 24 2 15.16 2 7.72 7.02 4.63 14.56l7.85 6.13C13.48 14.92 18.2 9.5 24 9.5z"/>
  <path fill="#4285F4" d="M46.7 24.5c0-1.57-.15-3.09-.43-4.59H24v9.19h12.63c-.8 4.29-3.3 7.9-6.9 10.3l6.2 4.8C42.4 41.5 46.7 33.16 46.7 24.5z"/>
  <path fill="#FBBC04" d="M12.48 29.58c-.56-1.68-.88-3.46-.88-5.5s.32-3.82.88-5.5l-7.85-6.13C4.1 16.5 2 20.37 2 24s2.1 7.5 5.48 10.91l7.85-6.13z"/>
  <path fill="#34A853" d="M24 46c6.26 0 11.53-2.07 15.3-5.63l-6.2-4.8c-2.18 1.45-5 2.33-9.1 2.33-5.78 0-10.51-5.42-12.24-10.03l-7.85 6.13C7.72 40.98 15.16 46 24 46z"/>
  <path fill="none" d="M0 0h48v48H0z"/>
</svg>